<svg width="108" height="40" viewBox="0 0 108 40" fill="none" xmlns="http://www.w3.org/2000/svg">
<g id="Layer 1">
<g id="Group">
<path id="Vector" d="M62.0331 31.812C65.9038 32.39 68.4667 30.3087 70.0313 26.8992C71.5026 23.697 72.8774 20.4481 74.3924 17.2692C74.7048 16.6154 75.4579 16.1717 76.0067 15.6316C76.1993 15.8009 76.392 15.9702 76.5846 16.1396C73.1022 23.9802 69.6227 31.8237 66.0118 39.9533H78.3419C78.3886 39.8774 78.4295 39.8044 78.4645 39.7344C79.4599 37.6852 80.251 35.5338 81.261 33.4934C81.5412 32.9271 82.3148 32.6031 82.8606 32.1682C82.9949 32.3258 83.1321 32.4863 83.2693 32.644C82.2564 35.0201 81.2464 37.3933 80.1547 39.9562H92.406C92.4206 39.93 92.4352 39.9037 92.4469 39.8803C93.4539 37.837 94.2363 35.6827 95.2346 33.6365C95.5323 33.0264 96.2592 32.6265 96.7875 32.1302C96.9714 32.2878 97.1553 32.4426 97.3392 32.6002C96.3292 34.9763 95.3192 37.3524 94.2158 39.9592H106.774C106.943 39.6322 107.048 39.2469 107.095 38.7974C107.468 35.1836 108.099 31.4997 107.754 27.9326C106.998 20.1007 100.331 12.9928 92.876 11.542C92.0353 16.8722 90.2546 21.6653 84.9449 24.1174C84.758 23.9889 84.5683 23.8576 84.3815 23.7262C84.8135 23.122 85.2134 22.4914 85.6892 21.9222C86.9999 20.3488 88.7075 18.9856 89.6008 17.2108C92.298 11.8602 91.3551 6.05709 91.5011 0.00585938C85.6513 0.236466 80.0554 -0.0787936 74.6493 0.78817C64.4442 2.42577 58.6499 10.4766 62.6607 20.8422C62.8913 21.4347 63.0285 22.0653 63.2095 22.6783C63.0285 22.7863 62.8475 22.8943 62.6694 23.0023C62.2783 22.5732 61.7587 22.2083 61.5223 21.7062C60.9968 20.5824 60.6845 19.3593 60.1415 18.2442C59.9138 17.7742 59.3359 17.1787 58.8951 17.1583C56.5657 17.0503 54.2275 17.1087 51.3989 17.1087C53.5036 21.5165 54.1516 26.2045 57.3392 29.6169C58.4426 30.7991 60.3663 31.5727 62.0214 31.8208L62.0331 31.812Z" fill="#B61272"/>
<path id="Vector_2" d="M8.36021 40C7.05831 40 5.8936 39.7781 4.86609 39.3373C3.83858 38.8966 2.95994 38.2923 2.22725 37.5275C1.49456 36.7627 0.93994 35.8928 0.56338 34.9179C0.18682 33.9429 0 32.9096 0 31.8237C0 30.7378 0.18682 29.6402 0.56338 28.6565C0.93994 27.6698 1.48872 26.7999 2.21265 26.0468C2.93366 25.2937 3.81522 24.6982 4.85149 24.2662C5.89068 23.8342 7.04955 23.6182 8.33102 23.6182C9.61249 23.6182 10.8268 23.8342 11.8543 24.2662C12.8819 24.6982 13.7605 25.2937 14.4932 26.0468C15.2259 26.7999 15.7834 27.6727 16.1716 28.6565C16.557 29.6431 16.7525 30.6998 16.7525 31.8237C16.7525 32.9475 16.5599 33.94 16.1716 34.9179C15.7863 35.8928 15.2259 36.7627 14.4932 37.5275C13.7605 38.2923 12.8819 38.8966 11.8543 39.3373C10.8268 39.7781 9.66212 40 8.36021 40ZM4.18011 31.8207C4.18011 32.7198 4.36401 33.5284 4.72889 34.2465C5.09377 34.9646 5.59877 35.525 6.23805 35.922C6.88025 36.3219 7.58666 36.5204 8.35729 36.5204C9.12793 36.5204 9.83142 36.3161 10.4619 35.9074C11.0925 35.4988 11.5945 34.9412 11.9711 34.2319C12.3477 33.5226 12.5345 32.7111 12.5345 31.7916C12.5345 30.8721 12.3447 30.0897 11.9711 29.3833C11.5945 28.674 11.0895 28.1164 10.4619 27.7078C9.83142 27.2991 9.11917 27.0948 8.32518 27.0948C7.5312 27.0948 6.85105 27.2991 6.22054 27.7078C5.59002 28.1164 5.09086 28.6769 4.72597 29.3833C4.36109 30.0927 4.17719 30.9042 4.17719 31.8237L4.18011 31.8207Z" fill="#B61272"/>
<path id="Vector_3" d="M32.9125 39.9562H28.7586V30.9713C28.7586 29.6869 28.5368 28.7499 28.0931 28.1602C27.6494 27.5706 27.013 27.2728 26.1869 27.2728C25.6294 27.2728 25.066 27.4158 24.4968 27.6961C23.9276 27.9792 23.4226 28.3675 22.976 28.8608C22.5323 29.3541 22.1849 29.9262 21.9368 30.5714V39.9532H17.8121V23.8604H21.5631V26.8612C21.9776 26.1665 22.5031 25.5827 23.1453 25.1127C23.7845 24.6427 24.5202 24.2749 25.3463 24.0093C26.1723 23.7437 27.0627 23.6094 28.0143 23.6094C29.0272 23.6094 29.8591 23.7904 30.5101 24.1465C31.161 24.5055 31.6573 24.9901 31.9988 25.6031C32.3403 26.2161 32.5768 26.8962 32.7111 27.6406C32.8453 28.3879 32.9125 29.1381 32.9125 29.8941V39.9503V39.9562Z" fill="#B61272"/>
<path id="Vector_4" d="M42.2389 40C40.9574 40 39.7985 39.7839 38.7594 39.3519C37.7231 38.9199 36.8357 38.3244 36.1059 37.5713C35.3732 36.8182 34.8128 35.957 34.4275 34.9908C34.0421 34.0246 33.8466 32.9884 33.8466 31.882C33.8466 30.3933 34.1881 29.0213 34.8682 27.7632C35.5484 26.5051 36.5175 25.498 37.7669 24.7449C39.0191 23.9918 40.5166 23.6123 42.2681 23.6123C44.0195 23.6123 45.482 23.9889 46.7226 24.7449C47.9632 25.5009 48.9206 26.4934 49.592 27.7224C50.2634 28.9513 50.5991 30.2911 50.5991 31.7419C50.5991 32.0046 50.5874 32.2498 50.5699 32.4834C50.5495 32.714 50.529 32.9125 50.5086 33.073H38.1814C38.2427 33.9079 38.4704 34.6201 38.8674 35.2068C39.2643 35.7936 39.7723 36.246 40.394 36.5642C41.0129 36.8824 41.6697 37.04 42.3615 37.04C43.1963 37.04 43.9728 36.8415 44.6967 36.4445C45.4177 36.0475 45.9111 35.5133 46.1767 34.842L49.6562 35.8198C49.2884 36.6343 48.7513 37.3553 48.0391 37.9858C47.3268 38.6163 46.4832 39.1096 45.5053 39.4658C44.5274 39.8219 43.4415 40 42.2389 40ZM38.0588 30.5101H46.419C46.3373 29.7161 46.1096 29.0243 45.733 28.4375C45.3564 27.8508 44.8631 27.3925 44.253 27.0656C43.643 26.7386 42.9599 26.5722 42.2097 26.5722C41.4595 26.5722 40.8115 26.7357 40.2101 27.0656C39.6088 27.3925 39.1213 27.8508 38.7448 28.4375C38.3682 29.0243 38.1405 29.7161 38.0588 30.5101Z" fill="#B61272"/>
<g id="Group_2">
<path id="Vector_5" d="M51.2034 13.2701C54.0537 13.2701 56.3643 10.9595 56.3643 8.10916C56.3643 5.25886 54.0537 2.94824 51.2034 2.94824C48.3531 2.94824 46.0425 5.25886 46.0425 8.10916C46.0425 10.9595 48.3531 13.2701 51.2034 13.2701Z" fill="#B61272"/>
<path id="Vector_6" d="M54.4173 7.7793H51.5333V4.89526H50.8735V7.7793H47.9895V8.43901H50.8735V11.3231H51.5333V8.43901H54.4173V7.7793Z" fill="white"/>
</g>
<g id="Group_3">
<path id="Vector_7" d="M17.8122 21.8054V7.49325L12.193 18.1508H9.8285L4.23849 7.49325V21.8054H0V0H4.5771L10.9961 12.3769L17.4765 0H22.0215V21.8054H17.8151H17.8122Z" fill="#B61272"/>
<path id="Vector_8" d="M26.5664 21.8054V0H35.8111C36.8153 0 37.7406 0.204335 38.59 0.615924C39.4395 1.02459 40.1722 1.57922 40.7852 2.27395C41.3982 2.97161 41.8769 3.74808 42.2126 4.60921C42.5512 5.47034 42.7205 6.34898 42.7205 7.25097C42.7205 8.45946 42.4432 9.62125 41.8915 10.7363C41.3398 11.8543 40.5546 12.7593 39.5417 13.454C38.5288 14.1516 37.3465 14.499 35.995 14.499H30.8049V21.8084H26.5664V21.8054ZM30.8049 10.7801H35.7177C36.249 10.7801 36.7218 10.6371 37.1305 10.351C37.5392 10.0649 37.8632 9.65044 38.0967 9.1075C38.3332 8.56455 38.4499 7.94571 38.4499 7.25097C38.4499 6.49201 38.3127 5.85273 38.0354 5.33022C37.7581 4.80771 37.3991 4.41071 36.9612 4.1334C36.5204 3.85609 36.0446 3.71889 35.5338 3.71889H30.8049V10.783V10.7801Z" fill="#B61272"/>
</g>
</g>
</g>
</svg>
