<svg width="787" height="423" viewBox="0 0 787 423" fill="none" xmlns="http://www.w3.org/2000/svg">
<g clip-path="url(#clip0_681_965)">
<path d="M764.493 66.1828C771.53 69.87 777.08 75.3542 781.048 82.6046C785.016 89.855 787 98.6236 787 108.91V175.651H763.78V112.381C763.78 102.249 761.238 94.4716 756.185 89.0803C751.1 83.6581 744.187 80.9624 735.414 80.9624C726.64 80.9624 719.696 83.6581 714.55 89.0803C709.404 94.5026 706.831 102.249 706.831 112.381V175.651H683.394V62.4647H706.831V75.4162C710.675 70.7685 715.573 67.1433 721.525 64.5406C727.477 61.9379 733.802 60.6366 740.529 60.6366C749.426 60.6366 757.425 62.4957 764.462 66.1828H764.493Z" fill="white"/>
<path fill-rule="evenodd" clip-rule="evenodd" d="M64.452 373.89L40.085 410.699C83.8899 419.127 87.052 401.559 93.7483 368.281C83.8589 369.738 74.0314 371.566 64.452 373.89Z" fill="url(#paint0_linear_681_965)"/>
<path d="M265.805 127.811H179.281C179.963 136.858 183.311 144.109 189.356 149.593C195.37 155.077 202.78 157.804 211.553 157.804C224.14 157.804 233.068 152.537 238.276 142.002H263.542C260.132 152.413 253.932 160.933 244.941 167.564C235.951 174.226 224.822 177.541 211.553 177.541C200.734 177.541 191.03 175.124 182.474 170.26C173.917 165.395 167.19 158.548 162.323 149.717C157.456 140.886 155.038 130.662 155.038 119.011C155.038 107.361 157.394 97.1363 162.137 88.3058C166.849 79.4752 173.514 72.6586 182.071 67.856C190.627 63.0534 200.455 60.6676 211.553 60.6676C222.652 60.6676 231.766 62.9914 240.105 67.6391C248.445 72.2868 254.986 78.8245 259.636 87.2523C264.286 95.6801 266.611 105.378 266.611 116.316C266.611 120.561 266.332 124.403 265.805 127.811ZM242.182 108.91C242.058 100.266 238.958 93.3562 232.944 88.1508C226.899 82.9454 219.427 80.3427 210.53 80.3427C202.439 80.3427 195.525 82.9145 189.79 88.0579C184.024 93.2013 180.614 100.142 179.498 108.91H242.182Z" fill="white"/>
<path d="M333.017 118.361L369.598 175.682H343.092L318.632 137.261L295.629 175.682H271.169L307.751 120.003L271.169 62.4957H297.675L322.135 100.916L345.138 62.4957H369.598L333.017 118.361Z" fill="white"/>
<path d="M383.146 43.1613C380.262 40.2798 378.836 36.7166 378.836 32.4717C378.836 28.2268 380.262 24.6636 383.146 21.7821C386.029 18.9005 389.594 17.4752 393.841 17.4752C398.088 17.4752 401.436 18.9005 404.32 21.7821C407.203 24.6636 408.629 28.2268 408.629 32.4717C408.629 36.7166 407.203 40.2798 404.32 43.1613C401.436 46.0429 397.964 47.4682 393.841 47.4682C389.718 47.4682 386.029 46.0429 383.146 43.1613ZM405.343 62.4647V175.651H381.906V62.4647H405.343Z" fill="white"/>
<path d="M430.33 88.2437C435.042 79.4132 441.583 72.5966 449.953 67.794C458.324 62.9914 467.903 60.6056 478.723 60.6056C492.425 60.6056 503.772 63.859 512.731 70.3657C521.721 76.8724 527.767 86.1368 530.929 98.1898H505.663C503.617 92.5816 500.331 88.1818 495.804 85.0523C491.278 81.8919 485.605 80.3427 478.754 80.3427C469.174 80.3427 461.517 83.72 455.844 90.5056C450.17 97.2912 447.318 106.772 447.318 118.949C447.318 131.126 450.17 140.669 455.844 147.486C461.517 154.334 469.174 157.742 478.754 157.742C492.332 157.742 501.292 151.793 505.663 139.864H530.929C527.643 151.359 521.473 160.5 512.452 167.285C503.4 174.071 492.177 177.448 478.754 177.448C467.934 177.448 458.324 175.031 449.984 170.167C441.614 165.302 435.073 158.455 430.361 149.624C425.648 140.793 423.261 130.569 423.261 118.918C423.261 107.268 425.617 97.0433 430.361 88.2128L430.33 88.2437Z" fill="white"/>
<path d="M548.476 88.3677C553.188 79.5991 559.636 72.7825 567.789 67.9179C575.943 63.0534 584.964 60.6366 594.823 60.6366C603.72 60.6366 611.501 62.3717 618.136 65.873C624.77 69.3742 630.071 73.712 634.07 78.9174V62.4957H657.693V175.682H634.07V158.826C630.102 164.156 624.677 168.617 617.826 172.181C610.974 175.744 603.162 177.51 594.389 177.51C584.654 177.51 575.757 175 567.665 170.012C559.574 165.023 553.188 158.021 548.445 149.066C543.732 140.112 541.345 129.918 541.345 118.578C541.345 107.237 543.701 97.1363 548.445 88.3987L548.476 88.3677ZM629.265 98.6236C626.041 92.8604 621.825 88.4916 616.616 85.4861C611.408 82.4806 605.797 80.9624 599.752 80.9624C593.707 80.9624 588.126 82.4497 582.887 85.3932C577.648 88.3367 573.463 92.6436 570.238 98.3447C567.014 104.015 565.402 110.769 565.402 118.578C565.402 126.386 567.014 133.233 570.238 139.12C573.463 145.007 577.71 149.5 582.98 152.568C588.25 155.635 593.83 157.184 599.721 157.184C605.611 157.184 611.377 155.666 616.585 152.66C621.794 149.655 626.01 145.224 629.234 139.399C632.458 133.574 634.07 126.757 634.07 118.949C634.07 111.141 632.458 104.356 629.234 98.6236H629.265Z" fill="white"/>
<path d="M14.3226 214.877C28.5212 242.608 43.4019 263.709 58.1275 279.356C70.9621 292.989 83.6416 302.47 95.5461 308.543L136.003 247.411H135.941C99.7623 224.08 56.7944 219.215 14.3226 214.877ZM206.221 221.694C202.563 221.694 199.587 224.668 199.587 228.325C199.587 231.981 202.563 234.955 206.221 234.955C209.879 234.955 212.855 231.981 212.855 228.325C212.855 224.668 209.879 221.694 206.221 221.694ZM104.971 312.695C107.11 313.501 109.218 314.182 111.264 314.771C123.137 318.148 133.771 318.087 142.451 315.577C151.628 312.912 158.603 307.521 162.447 300.673C167.562 291.564 167.221 282.888 163.501 274.987C159.781 267.055 152.775 259.712 144.311 253.236L104.94 312.695H104.971ZM331.714 232.445C334.442 233.034 336.178 235.761 335.589 238.487C334.969 241.214 332.272 242.949 329.544 242.36C313.889 238.859 298.326 237.031 282.887 236.814C267.542 236.597 252.258 237.961 237.036 240.904C222.466 249.673 219.613 266.559 216.668 283.818C213.816 300.611 210.902 317.746 198.068 330.542C187.248 341.325 172.522 347.243 155.844 350.001C140.994 352.448 124.563 352.355 108.009 350.93C106.056 358.8 107.389 352.913 105.839 360.163C95.3601 408.561 90.6479 433.194 30.5673 419.096C30.0093 418.972 29.4203 418.724 28.9242 418.383C26.5991 416.834 25.9481 413.674 27.4982 411.35L82.9906 327.537L89.9039 317.095C77.2863 310.495 64.0488 300.518 50.7182 286.358C33.9155 268.511 16.9887 243.972 1.08503 211.159C0.682015 210.354 0.496007 209.424 0.620013 208.463C0.899025 205.675 3.37913 203.63 6.16925 203.909L11.7495 204.466C56.6084 209.021 102.211 213.638 141.428 238.859L141.614 238.983L152.713 222.221C152.713 222.221 152.837 222.035 152.899 221.942C159.533 213.235 167.004 207.224 174.724 203.537C183.373 199.416 192.27 198.208 200.61 199.447C221.784 202.607 229.286 215.094 237.873 230.4C252.785 227.736 267.821 226.404 282.98 226.682C299.163 226.992 315.377 228.82 331.714 232.476V232.445ZM228.449 234.366C221.412 221.911 214.994 211.841 199.153 209.455C192.704 208.494 185.822 209.424 179.126 212.615C172.863 215.621 166.725 220.578 161.114 227.891L149.953 244.746C159.843 252.245 168.151 260.982 172.708 270.68C177.793 281.494 178.258 293.268 171.313 305.631C166.198 314.771 157.115 321.867 145.272 325.306C134.825 328.342 122.269 328.466 108.474 324.562C105.436 323.695 102.366 322.641 99.2043 321.371L91.4539 333.114L40.0847 410.73C88.2298 419.994 87.2688 397.872 95.8871 357.995C97.6542 349.784 96.6002 354.493 99.2353 344.206C99.8553 341.759 102.18 340.178 104.661 340.426C121.866 342.13 139.01 342.471 154.201 339.993C168.895 337.576 181.699 332.494 190.875 323.354C201.416 312.881 204.051 297.358 206.624 282.145C209.755 263.74 212.793 245.738 228.449 234.397V234.366Z" fill="white"/>
<path fill-rule="evenodd" clip-rule="evenodd" d="M110.954 285.243L136.003 247.38H135.941C101.126 224.947 60.0187 219.556 19.1279 215.342C45.6341 243.848 76.6974 268.016 110.954 285.243Z" fill="url(#paint1_linear_681_965)"/>
<path fill-rule="evenodd" clip-rule="evenodd" d="M144.342 253.236L120.192 289.705C133.089 295.592 146.358 300.518 160.029 304.298C160.928 303.152 161.765 301.944 162.447 300.673C167.562 291.564 167.221 282.888 163.501 274.987C159.781 267.055 152.775 259.712 144.311 253.236H144.342Z" fill="url(#paint2_linear_681_965)"/>
<path d="M341.356 314.523H254.831C255.513 323.571 258.861 330.821 264.906 336.305C270.921 341.79 278.33 344.516 287.103 344.516C299.69 344.516 308.618 339.249 313.827 328.714H339.093C335.682 339.125 329.482 347.646 320.492 354.276C311.501 360.938 300.372 364.253 287.103 364.253C276.284 364.253 266.58 361.806 258.024 356.972C249.468 352.108 242.74 345.26 237.873 336.429C233.006 327.599 230.588 317.374 230.588 305.724C230.588 294.074 232.944 283.849 237.687 275.018C242.399 266.188 249.065 259.371 257.621 254.599C266.177 249.797 276.005 247.411 287.103 247.411C298.202 247.411 307.316 249.735 315.656 254.383C323.995 259.03 330.536 265.568 335.186 273.996C339.837 282.423 342.162 292.091 342.162 303.059C342.162 307.304 341.883 311.146 341.356 314.554V314.523ZM317.702 295.623C317.578 287.009 314.478 280.1 308.463 274.894C302.418 269.689 294.947 267.086 286.049 267.086C277.958 267.086 271.045 269.658 265.309 274.801C259.543 279.945 256.133 286.885 255.017 295.654H317.702V295.623Z" fill="white"/>
<path d="M380.17 356.941C371.551 352.076 364.762 345.229 359.833 336.398C354.903 327.568 352.423 317.343 352.423 305.693C352.423 294.043 354.965 284.004 360.019 275.08C365.072 266.188 372.016 259.34 380.759 254.537C389.501 249.735 399.328 247.349 410.148 247.349C420.967 247.349 430.764 249.735 439.537 254.537C448.31 259.34 455.224 266.188 460.277 275.08C465.361 283.973 467.872 294.167 467.872 305.693C467.872 317.219 465.268 327.413 460.06 336.305C454.852 345.198 447.752 352.076 438.793 356.941C429.834 361.806 419.913 364.222 409.094 364.222C398.274 364.222 388.757 361.775 380.108 356.941H380.17ZM426.114 339.59C431.384 336.708 435.662 332.401 438.948 326.638C442.234 320.906 443.877 313.904 443.877 305.693C443.877 297.482 442.296 290.541 439.165 284.84C436.003 279.139 431.818 274.863 426.641 272.013C421.432 269.131 415.821 267.706 409.776 267.706C403.731 267.706 398.181 269.131 393.035 272.013C387.889 274.894 383.828 279.17 380.821 284.84C377.813 290.51 376.294 297.482 376.294 305.693C376.294 317.87 379.426 327.289 385.657 333.951C391.888 340.581 399.731 343.897 409.187 343.897C415.201 343.897 420.874 342.471 426.145 339.59H426.114Z" fill="white"/>
<path d="M525.69 252.709C532.541 249.146 540.291 247.38 548.91 247.38C558.768 247.38 567.79 249.797 575.943 254.661C584.096 259.526 590.483 266.343 595.164 275.111C599.814 283.88 602.139 293.95 602.139 305.29C602.139 316.63 599.814 326.824 595.164 335.779C590.514 344.764 584.096 351.736 575.943 356.724C567.79 361.744 558.768 364.222 548.91 364.222C540.291 364.222 532.603 362.487 525.907 358.986C519.179 355.516 513.723 351.147 509.476 345.942V416.183H486.039V249.177H509.476V265.816C513.444 260.61 518.869 256.242 525.721 252.678L525.69 252.709ZM573.463 285.057C570.239 279.387 565.992 275.049 560.721 272.106C555.451 269.162 549.778 267.675 543.764 267.675C537.749 267.675 532.293 269.193 527.023 272.199C521.753 275.204 517.505 279.604 514.281 285.336C511.057 291.068 509.445 297.854 509.445 305.662C509.445 313.47 511.057 320.286 514.281 326.112C517.505 331.937 521.753 336.336 527.023 339.373C532.293 342.409 537.873 343.897 543.764 343.897C549.654 343.897 555.451 342.378 560.721 339.28C565.992 336.212 570.239 331.72 573.463 325.833C576.687 319.946 578.299 313.098 578.299 305.29C578.299 297.482 576.687 290.758 573.463 285.057Z" fill="white"/>
<path d="M643.65 210.385V362.394H620.213V210.385H643.65Z" fill="white"/>
<path d="M772.305 314.523H685.781C686.463 323.571 689.811 330.821 695.856 336.305C701.87 341.79 709.28 344.516 718.053 344.516C730.64 344.516 739.568 339.249 744.776 328.714H770.042C766.632 339.125 760.432 347.646 751.441 354.276C742.451 360.938 731.322 364.253 718.053 364.253C707.234 364.253 697.53 361.806 688.974 356.972C680.417 352.108 673.69 345.26 668.823 336.429C663.956 327.599 661.538 317.374 661.538 305.724C661.538 294.074 663.894 283.849 668.637 275.018C673.349 266.188 680.014 259.371 688.571 254.599C697.127 249.797 706.955 247.411 718.053 247.411C729.152 247.411 738.266 249.735 746.605 254.383C754.945 259.03 761.486 265.568 766.136 273.996C770.786 282.423 773.111 292.091 773.111 303.059C773.111 307.304 772.832 311.146 772.305 314.554V314.523ZM748.651 295.623C748.527 287.009 745.427 280.1 739.413 274.894C733.368 269.689 725.896 267.086 716.999 267.086C708.908 267.086 701.994 269.658 696.259 274.801C690.493 279.945 687.083 286.885 685.967 295.654H748.651V295.623Z" fill="white"/>
<path d="M425.431 25.5622H423.695V0.185913H425.431V25.5622ZM441.676 13.4783H425.214V11.8361H441.676V13.4783ZM441.49 0.185913H443.226V25.5622H441.49V0.185913Z" fill="white"/>
<path d="M461.052 25.7481C458.076 25.7481 455.751 24.8186 454.015 22.9905C452.309 21.1624 451.441 18.4358 451.441 14.8106V0.185913H453.177V14.7176C453.177 17.878 453.86 20.2329 455.224 21.7511C456.588 23.2693 458.541 24.044 461.052 24.044C463.563 24.044 465.485 23.2693 466.849 21.7511C468.213 20.2329 468.895 17.878 468.895 14.7176V0.185913H470.631V14.8106C470.631 18.4358 469.763 21.1624 468.058 22.9905C466.353 24.8186 463.997 25.7481 460.99 25.7481H461.052Z" fill="white"/>
<path d="M478.909 25.5622V0.185913H480.366L491.495 20.5117H490.72L501.85 0.185913H503.276V25.5622H501.602V2.97452H502.036L491.526 22.1849H490.658L480.087 2.97452H480.614V25.5622H478.909Z" fill="white"/>
<path d="M507.74 25.5622L518.776 0.185913H520.513L531.549 25.5622H529.658L519.241 1.33234H519.985L509.6 25.5622H507.709H507.74ZM511.801 18.4048L512.39 16.8556H526.744L527.333 18.4048H511.801Z" fill="white"/>
<path d="M535.982 25.5622V0.185913H537.439L554.552 23.2693H553.777V0.185913H555.513V25.5622H554.087L536.943 2.47876H537.718V25.5622H535.982Z" fill="white"/>
<path d="M572.843 25.5622V0.185913H581.461C583.476 0.185913 585.212 0.526742 586.638 1.2084C588.064 1.89006 589.18 2.85058 589.956 4.12094C590.731 5.3913 591.134 6.94053 591.134 8.73763C591.134 10.5347 590.762 12.022 589.956 13.2923C589.149 14.5627 588.064 15.5542 586.638 16.2359C585.212 16.9175 583.476 17.2584 581.461 17.2584H573.804L574.579 16.3908V25.5622H572.843ZM574.579 16.4837L573.804 15.6162H581.461C584.034 15.6162 585.987 15.0275 587.351 13.8191C588.684 12.6107 589.366 10.9065 589.366 8.73763C589.366 6.56871 588.684 4.83358 587.351 3.65617C586.018 2.44778 584.065 1.85907 581.461 1.85907H573.804L574.579 0.960525V16.5147V16.4837ZM589.49 25.5622L583.259 16.3598H585.243L591.475 25.5622H589.49Z" fill="white"/>
<path d="M599.349 23.889H614.167V25.5622H597.613V0.185913H613.64V1.85907H599.349V23.889ZM599.132 11.8671H612.121V13.5092H599.132V11.8671Z" fill="white"/>
<path d="M626.909 25.7481C625.111 25.7481 623.437 25.4382 621.856 24.7876C620.275 24.1369 619.035 23.3313 618.167 22.3088L618.942 20.9455C619.779 21.844 620.895 22.5877 622.321 23.2073C623.747 23.827 625.266 24.1369 626.878 24.1369C628.49 24.1369 629.792 23.92 630.815 23.4552C631.838 23.0214 632.582 22.4018 633.078 21.6581C633.574 20.9145 633.822 20.0779 633.822 19.1484C633.822 18.0639 633.543 17.1964 632.985 16.5457C632.427 15.895 631.714 15.3683 630.815 14.9965C629.916 14.6247 628.955 14.2838 627.901 14.005C626.847 13.7261 625.793 13.4472 624.708 13.1374C623.623 12.8276 622.662 12.4557 621.763 11.96C620.864 11.4642 620.151 10.8136 619.624 9.97698C619.097 9.1404 618.818 8.05594 618.818 6.72361C618.818 5.51522 619.128 4.39977 619.717 3.37729C620.306 2.3548 621.236 1.5492 622.507 0.898528C623.778 0.278839 625.39 -0.0310059 627.343 -0.0310059C628.676 -0.0310059 629.978 0.185885 631.28 0.588684C632.582 0.991482 633.667 1.5492 634.597 2.26185L633.946 3.7491C632.954 3.03646 631.869 2.47874 630.722 2.13791C629.575 1.79708 628.459 1.61117 627.374 1.61117C625.855 1.61117 624.584 1.82806 623.561 2.29283C622.569 2.7576 621.825 3.37729 621.329 4.12091C620.833 4.89553 620.616 5.73211 620.616 6.69263C620.616 7.77708 620.895 8.64465 621.422 9.29532C621.949 9.94599 622.662 10.4727 623.561 10.8445C624.46 11.2164 625.421 11.5572 626.506 11.836C627.591 12.1149 628.645 12.3938 629.699 12.6726C630.753 12.9515 631.714 13.3543 632.613 13.85C633.512 14.3458 634.225 14.9965 634.783 15.8021C635.341 16.6077 635.62 17.6921 635.62 18.9935C635.62 20.1709 635.31 21.2863 634.69 22.3088C634.07 23.3313 633.14 24.1679 631.869 24.7876C630.598 25.4072 628.986 25.7171 626.971 25.7171L626.909 25.7481Z" fill="white"/>
<path d="M651.741 25.7481C649.943 25.7481 648.3 25.4382 646.781 24.7875C645.262 24.1369 643.929 23.2383 642.813 22.0609C641.666 20.8835 640.798 19.5202 640.178 17.971C639.558 16.4217 639.248 14.7176 639.248 12.8895C639.248 11.0614 639.558 9.35727 640.178 7.80805C640.798 6.25882 641.666 4.89551 642.813 3.7181C643.96 2.54069 645.262 1.64214 646.781 0.991463C648.3 0.34079 649.943 0.0309448 651.741 0.0309448C653.539 0.0309448 655.182 0.34079 656.701 0.991463C658.22 1.64214 659.553 2.54069 660.669 3.68711C661.786 4.83354 662.654 6.19685 663.305 7.77706C663.925 9.32629 664.235 11.0614 664.235 12.9205C664.235 14.7796 663.925 16.4837 663.305 18.0639C662.685 19.6131 661.817 20.9764 660.669 22.1539C659.553 23.3003 658.22 24.2298 656.701 24.8495C655.182 25.4692 653.539 25.81 651.741 25.81V25.7481ZM651.741 24.0439C653.26 24.0439 654.686 23.765 655.988 23.2073C657.29 22.6496 658.437 21.875 659.367 20.8525C660.297 19.83 661.073 18.6526 661.6 17.2893C662.127 15.926 662.406 14.4697 662.406 12.8585C662.406 11.2473 662.127 9.76007 661.6 8.42774C661.073 7.0954 660.297 5.91799 659.367 4.89551C658.437 3.87302 657.29 3.09841 655.988 2.54069C654.686 1.98297 653.26 1.70411 651.741 1.70411C650.222 1.70411 648.796 1.98297 647.494 2.54069C646.192 3.09841 645.045 3.87302 644.084 4.89551C643.123 5.91799 642.348 7.0954 641.821 8.42774C641.294 9.76007 641.015 11.2473 641.015 12.8585C641.015 14.4697 641.294 15.926 641.821 17.2893C642.348 18.6526 643.123 19.83 644.084 20.8525C645.045 21.875 646.192 22.6496 647.494 23.2073C648.796 23.765 650.222 24.0439 651.741 24.0439Z" fill="white"/>
<path d="M679.735 25.7481C676.759 25.7481 674.434 24.8186 672.698 22.9905C670.962 21.1624 670.125 18.4358 670.125 14.8106V0.185913H671.861V14.7176C671.861 17.878 672.543 20.2329 673.907 21.7511C675.271 23.2693 677.224 24.044 679.735 24.044C682.246 24.044 684.169 23.2693 685.533 21.7511C686.897 20.2329 687.579 17.878 687.579 14.7176V0.185913H689.315V14.8106C689.315 18.4358 688.447 21.1624 686.742 22.9905C685.037 24.8186 682.681 25.7481 679.673 25.7481H679.735Z" fill="white"/>
<path d="M697.592 25.5622V0.185913H706.211C708.226 0.185913 709.962 0.526742 711.388 1.2084C712.814 1.89006 713.93 2.85058 714.705 4.12094C715.48 5.3913 715.883 6.94053 715.883 8.73763C715.883 10.5347 715.511 12.022 714.705 13.2923C713.899 14.5627 712.814 15.5542 711.388 16.2359C709.962 16.9175 708.226 17.2584 706.211 17.2584H698.553L699.328 16.3908V25.5622H697.592ZM699.359 16.4837L698.584 15.6162H706.242C708.815 15.6162 710.768 15.0275 712.132 13.8191C713.465 12.6107 714.147 10.9065 714.147 8.73763C714.147 6.56871 713.465 4.83358 712.132 3.65617C710.799 2.44778 708.846 1.85907 706.242 1.85907H698.584L699.359 0.960525V16.5147V16.4837ZM714.271 25.5622L708.04 16.3598H710.024L716.255 25.5622H714.271Z" fill="white"/>
<path d="M732.5 25.7481C730.733 25.7481 729.058 25.4382 727.539 24.7876C726.02 24.1369 724.687 23.2383 723.571 22.0919C722.455 20.9455 721.587 19.5822 720.967 18.002C720.347 16.4527 720.037 14.7176 720.037 12.8585C720.037 10.9995 720.347 9.29532 720.967 7.71511C721.587 6.16589 722.455 4.80257 723.602 3.62516C724.749 2.44775 726.051 1.5492 727.57 0.929513C729.09 0.278839 730.733 -0.0310059 732.5 -0.0310059C734.267 -0.0310059 735.786 0.247854 737.243 0.836559C738.731 1.42526 739.971 2.29283 741.025 3.47024L739.94 4.67863C738.917 3.62516 737.77 2.85055 736.53 2.38578C735.29 1.92102 733.957 1.67314 732.562 1.67314C731.043 1.67314 729.617 1.952 728.283 2.50972C726.981 3.06744 725.834 3.84205 724.842 4.86454C723.85 5.88703 723.106 7.06444 722.579 8.42775C722.052 9.79107 721.773 11.2473 721.773 12.8585C721.773 14.4697 722.052 15.926 722.579 17.2893C723.106 18.6526 723.881 19.83 724.842 20.8525C725.803 21.875 726.95 22.6496 728.283 23.2073C729.586 23.7651 731.012 24.0439 732.562 24.0439C733.957 24.0439 735.29 23.7961 736.53 23.3313C737.77 22.8665 738.917 22.0919 739.94 21.0074L741.025 22.2158C739.971 23.3933 738.7 24.2918 737.243 24.8805C735.755 25.4692 734.174 25.7791 732.5 25.7791V25.7481Z" fill="white"/>
<path d="M748.714 23.889H763.532V25.5622H746.978V0.185913H763.005V1.85907H748.714V23.889ZM748.497 11.8671H761.486V13.5092H748.497V11.8671Z" fill="white"/>
<path d="M776.274 25.7481C774.476 25.7481 772.801 25.4382 771.22 24.7876C769.639 24.1369 768.399 23.3313 767.531 22.3088L768.306 20.9455C769.143 21.844 770.259 22.5877 771.685 23.2073C773.111 23.827 774.631 24.1369 776.243 24.1369C777.855 24.1369 779.157 23.92 780.18 23.4552C781.203 23.0214 781.947 22.4018 782.443 21.6581C782.939 20.9145 783.187 20.0779 783.187 19.1484C783.187 18.0639 782.908 17.1964 782.35 16.5457C781.792 15.895 781.079 15.3683 780.18 14.9965C779.281 14.6247 778.32 14.2838 777.266 14.005C776.212 13.7261 775.158 13.4472 774.073 13.1374C772.987 12.8276 772.026 12.4557 771.127 11.96C770.228 11.4642 769.515 10.8136 768.988 9.97698C768.461 9.1404 768.182 8.05594 768.182 6.72361C768.182 5.51522 768.492 4.39977 769.081 3.37729C769.67 2.3548 770.6 1.5492 771.871 0.898528C773.142 0.278839 774.755 -0.0310059 776.708 -0.0310059C778.041 -0.0310059 779.343 0.185885 780.645 0.588684C781.947 0.991482 783.032 1.5492 783.962 2.26185L783.311 3.7491C782.319 3.03646 781.234 2.47874 780.087 2.13791C778.94 1.79708 777.824 1.61117 776.739 1.61117C775.22 1.61117 773.949 1.82806 772.926 2.29283C771.933 2.7576 771.189 3.37729 770.693 4.12091C770.197 4.89553 769.98 5.73211 769.98 6.69263C769.98 7.77708 770.259 8.64465 770.786 9.29532C771.313 9.94599 772.026 10.4727 772.926 10.8445C773.825 11.2164 774.786 11.5572 775.871 11.836C776.956 12.1149 778.01 12.3938 779.064 12.6726C780.118 12.9515 781.079 13.3543 781.978 13.85C782.877 14.3458 783.59 14.9965 784.148 15.8021C784.706 16.6077 784.985 17.6921 784.985 18.9935C784.985 20.1709 784.675 21.2863 784.055 22.3088C783.435 23.3313 782.505 24.1679 781.234 24.7876C779.963 25.4072 778.351 25.7171 776.336 25.7171L776.274 25.7481Z" fill="white"/>
<path d="M142.172 32.9055V175.651H120.037V77.895L78.8674 175.651H63.5217L22.135 77.895V175.651H0V32.9055H23.902L71.3031 144.852L118.487 32.9055H142.172Z" fill="white"/>
</g>
<defs>
<linearGradient id="paint0_linear_681_965" x1="66.9166" y1="368.281" x2="66.9166" y2="412.794" gradientUnits="userSpaceOnUse">
<stop stop-color="#1F235E"/>
<stop offset="1" stop-color="#4AA9ED"/>
</linearGradient>
<linearGradient id="paint1_linear_681_965" x1="77.5655" y1="215.342" x2="77.5655" y2="285.243" gradientUnits="userSpaceOnUse">
<stop stop-color="#71ED94"/>
<stop offset="1" stop-color="#FFD600"/>
</linearGradient>
<linearGradient id="paint2_linear_681_965" x1="143.243" y1="253.236" x2="143.243" y2="304.298" gradientUnits="userSpaceOnUse">
<stop stop-color="#FF084A"/>
<stop offset="1" stop-color="#FF9656"/>
</linearGradient>
<clipPath id="clip0_681_965">
<rect width="787" height="423" fill="white"/>
</clipPath>
</defs>
</svg>
